<svg width="206" height="206" viewBox="0 0 206 206" fill="none" xmlns="http://www.w3.org/2000/svg">
<g filter="url(#filter0_i)">
<path d="M111.637 182.723C156.311 182.723 192.526 147.053 192.526 103.052C192.526 59.0514 156.311 23.3816 111.637 23.3816C66.964 23.3816 30.749 59.0514 30.749 103.052C30.749 147.053 66.964 182.723 111.637 182.723Z" fill="url(#paint0_radial)"/>
</g>
<g filter="url(#filter1_di)">
<path d="M15.7535 9.27311C34.9247 21.2495 35.4599 37.832 35.4599 37.832C14.3013 62.1976 7.50036 96.0301 17.5905 126.726C33.3027 174.47 84.4093 200.233 131.748 184.272C165.27 172.967 190.01 143.293 193 108.014C184.698 126.635 168.462 139.556 149.417 145.976C110.058 159.244 67.5667 137.821 54.5074 98.1233C54.4816 98.0519 54.4533 97.9567 54.4275 97.8782C76.459 134.557 110.884 127.483 110.884 127.483C71.2295 96.4763 101.871 71.8287 101.871 71.8287C117.296 66.3136 110.981 38.4004 110.981 38.4004C91.5982 36.3189 80.7986 41.8001 80.7986 41.8001C73.6611 20.2258 59.0489 28.1172 59.0489 28.1172L54.058 26.911C35.0052 5.38766 15.7542 9.27348 15.7542 9.27348L15.7535 9.27311Z" fill="url(#paint1_linear)"/>
</g>
<defs>
<filter id="filter0_i" x="28.749" y="23.3816" width="163.777" height="176.342" filterUnits="userSpaceOnUse" color-interpolation-filters="sRGB">
<feFlood flood-opacity="0" result="BackgroundImageFix"/>
<feBlend mode="normal" in="SourceGraphic" in2="BackgroundImageFix" result="shape"/>
<feColorMatrix in="SourceAlpha" type="matrix" values="0 0 0 0 0 0 0 0 0 0 0 0 0 0 0 0 0 0 127 0" result="hardAlpha"/>
<feOffset dx="-2" dy="17"/>
<feGaussianBlur stdDeviation="13.5"/>
<feComposite in2="hardAlpha" operator="arithmetic" k2="-1" k3="1"/>
<feColorMatrix type="matrix" values="0 0 0 0 0 0 0 0 0 0 0 0 0 0 0 0 0 0 0.03 0"/>
<feBlend mode="normal" in2="shape" result="effect1_innerShadow"/>
</filter>
<filter id="filter1_di" x="0" y="0" width="206" height="206" filterUnits="userSpaceOnUse" color-interpolation-filters="sRGB">
<feFlood flood-opacity="0" result="BackgroundImageFix"/>
<feColorMatrix in="SourceAlpha" type="matrix" values="0 0 0 0 0 0 0 0 0 0 0 0 0 0 0 0 0 0 127 0"/>
<feOffset dy="4"/>
<feGaussianBlur stdDeviation="6.5"/>
<feColorMatrix type="matrix" values="0 0 0 0 0 0 0 0 0 0 0 0 0 0 0 0 0 0 0.11 0"/>
<feBlend mode="normal" in2="BackgroundImageFix" result="effect1_dropShadow"/>
<feBlend mode="normal" in="SourceGraphic" in2="effect1_dropShadow" result="shape"/>
<feColorMatrix in="SourceAlpha" type="matrix" values="0 0 0 0 0 0 0 0 0 0 0 0 0 0 0 0 0 0 127 0" result="hardAlpha"/>
<feOffset dy="-5"/>
<feGaussianBlur stdDeviation="6.5"/>
<feComposite in2="hardAlpha" operator="arithmetic" k2="-1" k3="1"/>
<feColorMatrix type="matrix" values="0 0 0 0 0 0 0 0 0 0 0 0 0 0 0 0 0 0 0.13 0"/>
<feBlend mode="normal" in2="shape" result="effect2_innerShadow"/>
</filter>
<radialGradient id="paint0_radial" cx="0" cy="0" r="1" gradientUnits="userSpaceOnUse" gradientTransform="translate(111.638 103.052) rotate(90) scale(79.6708 80.8885)">
<stop stop-color="#6389DF"/>
<stop offset="1" stop-color="#5365F4"/>
</radialGradient>
<linearGradient id="paint1_linear" x1="20.972" y1="11.4754" x2="192.658" y2="130.327" gradientUnits="userSpaceOnUse">
<stop stop-color="white"/>
<stop offset="1" stop-color="#E0E0E0"/>
</linearGradient>
</defs>
</svg>
